<svg xmlns="http://www.w3.org/2000/svg" width="70" height="70" viewBox="0 0 197 157" fill="none">
          <path d="M135.057 23.5001C135.047 14.6831 129.442 7.00342 121.157 2.98377C117.251 1.08923 112.751 0.00516222 107.957 0H107.919C103.161 0 98.6873 1.0617 94.8002 2.92698C92.1537 4.19689 89.7807 5.83675 87.7692 7.76742C83.648 11.7234 81.0583 16.8994 80.8019 22.5968C80.7882 22.9048 80.7812 23.2128 80.7812 23.5242V91.0616C80.7812 91.6432 80.8054 92.2196 80.8535 92.7909C81.5332 100.927 86.988 107.913 94.7984 111.659C94.8225 111.671 94.8432 111.681 94.8672 111.692C98.7389 113.538 103.185 114.586 107.917 114.586H107.955C112.749 114.581 117.249 113.498 121.155 111.604C129.442 107.582 135.045 99.9027 135.055 91.0857L135.098 57.292L135.057 23.5001ZM121.157 90.979C121.157 94.1331 119.682 96.9895 117.295 99.0578C114.91 101.124 111.617 102.403 107.978 102.403C101.064 102.403 95.3921 97.7862 94.8432 91.9151C94.8139 91.607 94.8002 91.2956 94.8002 90.979V23.6068C94.8002 17.2986 100.701 12.1828 107.978 12.1828C111.617 12.1828 114.91 13.4613 117.295 15.5297C119.682 17.5963 121.157 20.4527 121.157 23.6068V90.979Z" fill="white"/>
          <path d="M196.972 34.2094H196.924V9.44449C196.924 5.60208 193.808 2.48582 189.965 2.48582H189.865C186.023 2.48582 182.907 5.60208 182.907 9.44449V42.7374C182.907 49.0456 177.006 54.1614 169.729 54.1614C166.09 54.1614 162.796 52.8828 160.411 50.8145C158.283 48.9699 156.879 46.4989 156.603 43.7474C156.569 43.4153 156.55 43.0781 156.55 42.7374V9.4118C156.55 5.56939 153.434 2.45312 149.591 2.45312C145.747 2.45312 142.631 5.57111 142.633 9.41524L142.65 42.8441C142.659 48.8959 145.3 54.4109 149.636 58.5751C154.594 63.3381 161.767 66.3339 169.75 66.3425H169.788C174.608 66.3425 179.131 65.2481 183.056 63.3363V90.9783C183.056 94.1324 181.582 96.9889 179.195 99.0572C177.806 100.26 176.11 101.198 174.215 101.769C171.632 102.55 169.872 104.942 169.867 107.642C169.86 111.636 173.608 114.621 177.478 113.637C179.438 113.138 181.306 112.453 183.055 111.605C191.342 107.583 196.945 99.9038 196.955 91.0867L196.998 57.2931L196.972 34.2094Z" fill="white"/>
          <path d="M75.0088 23.5001C75.0002 17.4483 72.3571 11.9316 68.0209 7.76742C63.0651 3.00441 55.8897 0.0086037 47.9071 0H47.8693C32.8868 0 20.7349 10.5309 20.7349 23.5242V48.093H7.62461C3.41396 48.093 0 51.5069 0 55.7176C0 59.9282 3.41396 63.3422 7.62461 63.3422H20.7349V107.514C20.7349 111.384 23.8735 114.522 27.7435 114.522C31.6134 114.522 34.7521 111.384 34.7521 107.514V63.3422H46.9194C51.1301 63.3422 54.544 59.9282 54.544 55.7176C54.544 51.5069 51.1301 48.093 46.9194 48.093H34.7521V23.6068C34.7521 17.2986 40.6525 12.1846 47.9312 12.1846C51.5706 12.1846 54.8641 13.4631 57.2473 15.5297C59.3759 17.3743 60.7783 19.8436 61.057 22.5968C61.0914 22.9289 61.1104 23.2661 61.1104 23.6051V25.011C61.1104 28.8499 64.2232 31.9627 68.0621 31.9627C71.9046 31.9627 75.0191 28.8448 75.014 25.0024L75.0088 23.5001Z" fill="white"/>
          <path d="M22.6719 155.9V143.082H30.5649V144.529H24.1913V148.723H29.8508V150.17H24.1913V155.902H22.6719V155.9Z" fill="white"/>
          <path d="M49.0391 149.511C49.0391 148.619 49.2094 147.774 49.5518 146.974C49.8925 146.174 50.3606 145.476 50.9525 144.878C51.5445 144.28 52.238 143.806 53.0312 143.459C53.8245 143.111 54.6728 142.938 55.5762 142.938C56.4675 142.938 57.3124 143.111 58.1125 143.459C58.9127 143.806 59.6113 144.28 60.2101 144.878C60.8072 145.476 61.2822 146.176 61.6297 146.974C61.9773 147.774 62.1511 148.619 62.1511 149.511C62.1511 150.414 61.9773 151.262 61.6297 152.056C61.2822 152.849 60.809 153.542 60.2101 154.134C59.6113 154.726 58.9127 155.193 58.1125 155.535C57.3124 155.876 56.4675 156.048 55.5762 156.048C54.6728 156.048 53.8245 155.877 53.0312 155.535C52.238 155.193 51.5445 154.726 50.9525 154.134C50.3606 153.542 49.8925 152.849 49.5518 152.056C49.2094 151.262 49.0391 150.414 49.0391 149.511ZM50.5585 149.511C50.5585 150.22 50.6893 150.88 50.9525 151.498C51.2141 152.114 51.5755 152.651 52.0332 153.109C52.4909 153.567 53.0243 153.93 53.6352 154.198C54.2461 154.466 54.8982 154.601 55.5951 154.601C56.292 154.601 56.9441 154.466 57.555 154.198C58.1659 153.93 58.6993 153.567 59.157 153.109C59.6147 152.651 59.9744 152.114 60.2377 151.498C60.4992 150.882 60.6317 150.22 60.6317 149.511C60.6317 148.802 60.5009 148.141 60.2377 147.523C59.9744 146.907 59.6147 146.367 59.157 145.902C58.6993 145.438 58.1659 145.071 57.555 144.805C56.9441 144.536 56.292 144.402 55.5951 144.402C54.8999 144.402 54.2461 144.536 53.6352 144.805C53.0243 145.073 52.4909 145.439 52.0332 145.902C51.5755 146.367 51.2158 146.907 50.9525 147.523C50.6893 148.141 50.5585 148.804 50.5585 149.511Z" fill="white"/>
          <path d="M80.0938 155.9V143.082H83.1154C83.5301 143.082 83.9912 143.146 84.4971 143.275C85.003 143.404 85.4762 143.607 85.9167 143.887C86.3555 144.168 86.7221 144.527 87.0146 144.968C87.3071 145.407 87.4534 145.938 87.4534 146.561C87.4534 147.477 87.2245 148.243 86.7668 148.859C86.3091 149.476 85.6414 149.881 84.7621 150.077L87.5084 155.9H85.8617L83.1705 150.187H82.859H81.6149V155.9H80.0938ZM81.6132 148.721H83.2066C83.7435 148.721 84.1874 148.65 84.5333 148.509C84.8809 148.37 85.1596 148.194 85.3661 147.988C85.5743 147.78 85.7206 147.549 85.8049 147.293C85.891 147.036 85.9323 146.792 85.9323 146.56C85.9323 146.291 85.8617 146.031 85.7223 145.782C85.5812 145.532 85.3919 145.312 85.1545 145.123C84.9153 144.934 84.6296 144.784 84.2941 144.674C83.9586 144.564 83.6006 144.509 83.2221 144.509H81.6115V148.721H81.6132Z" fill="white"/>
          <path d="M132.289 150.973V155.9H130.42V150.956C129.639 149.638 128.861 148.325 128.085 147.019C127.311 145.713 126.531 144.4 125.75 143.082H127.617C128.204 144.071 128.789 145.057 129.376 146.04C129.962 147.023 130.547 148.009 131.134 148.998C131.17 149.096 131.205 149.191 131.236 149.282C131.267 149.373 131.299 149.468 131.337 149.566H131.356C131.392 149.468 131.43 149.373 131.466 149.282C131.502 149.191 131.54 149.096 131.576 148.998C132.163 148.009 132.745 147.023 133.325 146.04C133.905 145.057 134.488 144.071 135.073 143.082H136.942C136.16 144.412 135.384 145.729 134.615 147.028C133.844 148.327 133.068 149.643 132.289 150.973Z" fill="white"/>
          <path d="M154.094 149.511C154.094 148.619 154.264 147.774 154.607 146.974C154.949 146.174 155.415 145.476 156.007 144.878C156.599 144.28 157.293 143.806 158.086 143.459C158.879 143.111 159.727 142.938 160.631 142.938C161.522 142.938 162.367 143.111 163.167 143.459C163.967 143.806 164.666 144.28 165.265 144.878C165.862 145.476 166.337 146.176 166.684 146.974C167.032 147.774 167.206 148.619 167.206 149.511C167.206 150.414 167.032 151.262 166.684 152.056C166.337 152.849 165.864 153.542 165.265 154.134C164.666 154.726 163.967 155.193 163.167 155.535C162.367 155.876 161.522 156.048 160.631 156.048C159.727 156.048 158.879 155.877 158.086 155.535C157.293 155.193 156.599 154.726 156.007 154.134C155.415 153.542 154.947 152.849 154.607 152.056C154.264 151.262 154.094 150.414 154.094 149.511ZM155.613 149.511C155.613 150.22 155.744 150.88 156.007 151.498C156.269 152.114 156.63 152.651 157.088 153.109C157.546 153.567 158.079 153.93 158.69 154.198C159.301 154.466 159.953 154.601 160.65 154.601C161.347 154.601 161.999 154.466 162.61 154.198C163.221 153.93 163.754 153.567 164.212 153.109C164.669 152.651 165.029 152.114 165.292 151.498C165.554 150.882 165.686 150.22 165.686 149.511C165.686 148.802 165.556 148.141 165.292 147.523C165.029 146.907 164.669 146.367 164.212 145.902C163.754 145.438 163.221 145.071 162.61 144.805C161.999 144.536 161.347 144.402 160.65 144.402C159.955 144.402 159.301 144.536 158.69 144.805C158.079 145.073 157.546 145.439 157.088 145.902C156.63 146.367 156.271 146.907 156.007 147.523C155.744 148.141 155.613 148.804 155.613 149.511Z" fill="white"/>
          <path d="M190.098 156.048C189.439 156.048 188.828 155.957 188.267 155.772C187.706 155.59 187.217 155.318 186.802 154.957C186.388 154.597 186.063 154.148 185.832 153.611C185.6 153.074 185.484 152.458 185.484 151.761V143.082H187.004V151.706C187.004 152.171 187.079 152.582 187.233 152.942C187.386 153.302 187.599 153.604 187.874 153.849C188.148 154.093 188.475 154.279 188.854 154.408C189.232 154.535 189.647 154.601 190.099 154.601C190.552 154.601 190.967 154.537 191.345 154.408C191.724 154.281 192.051 154.093 192.326 153.849C192.6 153.604 192.816 153.303 192.976 152.942C193.136 152.581 193.216 152.169 193.216 151.706V143.082H194.735V151.761C194.735 152.458 194.616 153.074 194.377 153.611C194.14 154.148 193.813 154.597 193.398 154.957C192.983 155.316 192.495 155.588 191.934 155.772C191.366 155.957 190.757 156.048 190.098 156.048Z" fill="white"/>
        </svg>