<svg width="143" height="144" viewBox="0 0 143 144" fill="none" xmlns="http://www.w3.org/2000/svg">
<g id="Layer 3">
<path id="Vector" d="M71.1052 141.035C109.232 141.035 140.14 110.127 140.14 71.9998C140.14 33.8728 109.232 2.96484 71.1052 2.96484C32.9783 2.96484 2.07031 33.8728 2.07031 71.9998C2.07031 110.127 32.9783 141.035 71.1052 141.035Z" stroke="black" stroke-width="4" stroke-miterlimit="10"/>
<path id="Vector_2" d="M72.0844 83.2563C77.4899 83.2563 81.8719 78.8743 81.8719 73.4688C81.8719 68.0634 77.4899 63.6814 72.0844 63.6814C66.679 63.6814 62.297 68.0634 62.297 73.4688C62.297 78.8743 66.679 83.2563 72.0844 83.2563Z" stroke="black" stroke-width="4" stroke-miterlimit="10"/>
<path id="Vector_3" d="M54.4713 111.622C58.2524 111.622 61.3176 108.557 61.3176 104.776C61.3176 100.995 58.2524 97.9297 54.4713 97.9297C50.6902 97.9297 47.625 100.995 47.625 104.776C47.625 108.557 50.6902 111.622 54.4713 111.622Z" stroke="black" stroke-width="4" stroke-miterlimit="10"/>
<path id="Vector_4" d="M96.5344 100.862C98.6957 100.862 100.448 99.1098 100.448 96.9485C100.448 94.7872 98.6957 93.0352 96.5344 93.0352C94.3732 93.0352 92.6211 94.7872 92.6211 96.9485C92.6211 99.1098 94.3732 100.862 96.5344 100.862Z" stroke="black" stroke-width="4" stroke-miterlimit="10"/>
<path id="Vector_5" d="M101.429 58.796C104.673 58.796 107.303 56.1661 107.303 52.9219C107.303 49.6778 104.673 47.0479 101.429 47.0479C98.1846 47.0479 95.5547 49.6778 95.5547 52.9219C95.5547 56.1661 98.1846 58.796 101.429 58.796Z" stroke="black" stroke-width="4" stroke-miterlimit="10"/>
<path id="Vector_6" d="M68.1712 40.2046C70.3324 40.2046 72.0845 38.4525 72.0845 36.2913C72.0845 34.13 70.3324 32.3779 68.1712 32.3779C66.0099 32.3779 64.2578 34.13 64.2578 36.2913C64.2578 38.4525 66.0099 40.2046 68.1712 40.2046Z" stroke="black" stroke-width="4" stroke-miterlimit="10"/>
<path id="Vector_7" d="M40.7725 69.5578C44.0167 69.5578 46.6466 66.9278 46.6466 63.6837C46.6466 60.4395 44.0167 57.8096 40.7725 57.8096C37.5284 57.8096 34.8984 60.4395 34.8984 63.6837C34.8984 66.9278 37.5284 69.5578 40.7725 69.5578Z" stroke="black" stroke-width="4" stroke-miterlimit="10"/>
</g>
</svg>
