<svg width="143" height="144" viewBox="0 0 143 144" fill="none" xmlns="http://www.w3.org/2000/svg">
<g id="Layer 3">
<path id="Vector" d="M71.1755 141.035C109.302 141.035 140.21 110.127 140.21 71.9998C140.21 33.8728 109.302 2.96484 71.1755 2.96484C33.0486 2.96484 2.14062 33.8728 2.14062 71.9998C2.14062 110.127 33.0486 141.035 71.1755 141.035Z" stroke="black" stroke-width="4" stroke-miterlimit="10"/>
<path id="Vector_2" d="M73.8105 41.7986C73.8105 41.7986 73.8116 41.7985 73.814 41.7983L73.8105 41.7986Z" fill="black" stroke="black" stroke-width="4"/>
<path id="Vector_3" d="M89.1537 73.1889C89.1542 73.1889 89.1549 73.189 89.1556 73.1891L89.1537 73.1889Z" fill="black" stroke="black" stroke-width="4"/>
<path id="Vector_4" d="M72.3662 70.2192C72.3662 70.2191 72.3675 70.2183 72.37 70.2169C72.3674 70.2185 72.3661 70.2192 72.3662 70.2192ZM78.7173 71.7416C78.7173 71.7416 78.717 71.7403 78.7166 71.738C78.7171 71.7404 78.7173 71.7416 78.7173 71.7416ZM72.5938 66.7851L72.646 66.7412L72.5938 66.7851Z" fill="black" stroke="black" stroke-width="4"/>
<path id="Vector_5" d="M90.7259 98.9592C90.816 98.9032 90.8843 98.8181 90.9195 98.7181C90.9547 98.618 90.9547 98.5089 90.9194 98.4088C90.8842 98.3088 90.8158 98.2237 90.7256 98.1678C90.6354 98.1119 90.5289 98.0884 90.4236 98.1013C83.2734 99.0433 76.0074 97.7327 69.6369 94.352C63.2664 90.9714 58.1083 85.6887 54.8805 79.2394C51.6527 72.7901 50.5158 65.4949 51.628 58.3692C52.7402 51.2436 56.0461 44.6418 61.0858 39.4829C61.1644 39.4089 61.2142 39.3096 61.2266 39.2023C61.239 39.0951 61.2131 38.987 61.1534 38.8971C61.0938 38.8071 61.0043 38.7412 60.9007 38.7108C60.7971 38.6805 60.6862 38.6877 60.5874 38.7313C38.3655 47.571 30.0405 72.5789 38.243 88.2894C46.2658 103.698 70.7752 111.255 90.7259 98.9592Z" stroke="black" stroke-width="4" stroke-miterlimit="10"/>
</g>
</svg>
