<svg width="43" height="43" viewBox="0 0 43 43" fill="none" xmlns="http://www.w3.org/2000/svg">
<path id="Icon" fill-rule="evenodd" clip-rule="evenodd" d="M21.4995 3.28629L16.9817 7.96069C16.5009 8.45822 15.8386 8.73918 15.1467 8.73918H8.73912V15.1467C8.73912 15.8387 8.45816 16.5009 7.96063 16.9818L3.28623 21.4996L7.96063 26.0174C8.45816 26.4983 8.73912 27.1605 8.73912 27.8525V34.26H15.1467C15.8386 34.26 16.5009 34.541 16.9817 35.0385L21.4995 39.7129L26.0173 35.0385C26.4982 34.541 27.1605 34.26 27.8524 34.26H34.26V27.8525C34.26 27.1605 34.5409 26.4983 35.0384 26.0174L39.7128 21.4996L35.0384 16.9818C34.5409 16.5009 34.26 15.8387 34.26 15.1467V8.73918H27.8524C27.1605 8.73918 26.4982 8.45822 26.0173 7.96069L21.4995 3.28629ZM19.6645 0.778245C20.6677 -0.259741 22.3314 -0.259739 23.3346 0.778245L28.0689 5.67668H34.7704C36.1799 5.67668 37.3225 6.81929 37.3225 8.22876V14.9302L42.2209 19.6645C43.2589 20.6677 43.2589 22.3315 42.2209 23.3347L37.3225 28.069V34.7704C37.3225 36.1799 36.1798 37.3225 34.7704 37.3225H28.0689L23.3346 42.2209C22.3314 43.2589 20.6677 43.2589 19.6645 42.2209L14.9301 37.3225H8.2287C6.81922 37.3225 5.67662 36.1799 5.67662 34.7704V28.069L0.778183 23.3347C-0.2598 22.3315 -0.259802 20.6677 0.778183 19.6645L5.67662 14.9302V8.22876C5.67662 6.81928 6.81923 5.67668 8.2287 5.67668H14.9301L19.6645 0.778245Z" fill="url(#paint0_linear_7690_84)"/>
<defs>
<linearGradient id="paint0_linear_7690_84" x1="8.68784" y1="50.0164" x2="55.1685" y2="38.5882" gradientUnits="userSpaceOnUse">
<stop stop-color="#C678F4"/>
<stop offset="0.46875" stop-color="#FF55BC"/>
<stop offset="0.854229" stop-color="#FF8210"/>
</linearGradient>
</defs>
</svg>
